<?xml version="1.0" encoding="UTF-8"?>
<svg version="1.1" xmlns="http://www.w3.org/2000/svg" width="200" height="200">
<path d="M0 0 C66 0 132 0 200 0 C200 66 200 132 200 200 C134 200 68 200 0 200 C0 134 0 68 0 0 Z " fill="#191918" transform="translate(0,0)"/>
<path d="M0 0 C0.89802841 -0.00511093 1.79605682 -0.01022186 2.72129822 -0.01548767 C5.69008041 -0.02938808 8.65863054 -0.02842641 11.62744141 -0.02612305 C13.69243455 -0.03001001 15.7574269 -0.03434468 17.82241821 -0.03910828 C22.15165803 -0.04657166 26.4808163 -0.04627854 30.81005859 -0.04101562 C36.35396277 -0.0352239 41.89753255 -0.05214437 47.44138145 -0.0753603 C51.70679675 -0.09010366 55.97213164 -0.09096845 60.2375679 -0.08785057 C62.28127326 -0.08836358 64.32498315 -0.09359746 66.36866379 -0.10366249 C69.22906865 -0.11601972 72.08882403 -0.10923912 74.94921875 -0.09765625 C76.21186302 -0.10912186 76.21186302 -0.10912186 77.50001526 -0.12081909 C83.73257618 -0.06512732 87.83684344 1.07827463 92.45062256 5.54801941 C94.49362708 8.917197 94.58812396 10.97596077 94.55810547 14.90087891 C94.55868958 15.5453447 94.55927368 16.18981049 94.55987549 16.85380554 C94.55710345 18.96991092 94.52605752 21.08458225 94.49462891 23.20043945 C94.48716328 24.67302175 94.48147186 26.14561403 94.47747803 27.61820984 C94.46224672 31.48344627 94.42298754 35.34807605 94.37866211 39.21307373 C94.33765472 43.1612528 94.31945541 47.10953043 94.29931641 51.05786133 C94.25648978 58.79710146 94.18616162 66.53571735 94.10400391 74.2746582 C86.84400391 74.2746582 79.58400391 74.2746582 72.10400391 74.2746582 C72.10400391 69.6546582 72.10400391 65.0346582 72.10400391 60.2746582 C54.28400391 60.2746582 36.46400391 60.2746582 18.10400391 60.2746582 C18.10400391 52.6846582 18.10400391 45.0946582 18.10400391 37.2746582 C35.92400391 37.2746582 53.74400391 37.2746582 72.10400391 37.2746582 C72.10400391 32.6546582 72.10400391 28.0346582 72.10400391 23.2746582 C49.66400391 23.2746582 27.22400391 23.2746582 4.10400391 23.2746582 C4.10400391 40.1046582 4.10400391 56.9346582 4.10400391 74.2746582 C-3.15599609 74.2746582 -10.41599609 74.2746582 -17.89599609 74.2746582 C-18.00911567 65.77293875 -18.10077899 57.27180774 -18.15505695 48.76953697 C-18.18111236 44.82125181 -18.21643435 40.87350973 -18.27319336 36.92553711 C-18.32766077 33.11294877 -18.35744714 29.3008816 -18.37038231 25.48793411 C-18.37959604 24.03586246 -18.39758898 22.58381823 -18.42464638 21.13196945 C-18.65371127 8.3274557 -18.65371127 8.3274557 -15.61547852 4.46069336 C-10.44308324 0.30290296 -6.56735915 -0.01923607 0 0 Z " fill="#1B1A17" transform="translate(61.89599609375,62.725341796875)"/>
<path d="M0 0 C0.89802841 -0.00511093 1.79605682 -0.01022186 2.72129822 -0.01548767 C5.69008041 -0.02938808 8.65863054 -0.02842641 11.62744141 -0.02612305 C13.69243455 -0.03001001 15.7574269 -0.03434468 17.82241821 -0.03910828 C22.15165803 -0.04657166 26.4808163 -0.04627854 30.81005859 -0.04101562 C36.35396277 -0.0352239 41.89753255 -0.05214437 47.44138145 -0.0753603 C51.70679675 -0.09010366 55.97213164 -0.09096845 60.2375679 -0.08785057 C62.28127326 -0.08836358 64.32498315 -0.09359746 66.36866379 -0.10366249 C69.22906865 -0.11601972 72.08882403 -0.10923912 74.94921875 -0.09765625 C76.21186302 -0.10912186 76.21186302 -0.10912186 77.50001526 -0.12081909 C83.73257618 -0.06512732 87.83684344 1.07827463 92.45062256 5.54801941 C94.49362708 8.917197 94.58812396 10.97596077 94.55810547 14.90087891 C94.55868958 15.5453447 94.55927368 16.18981049 94.55987549 16.85380554 C94.55710345 18.96991092 94.52605752 21.08458225 94.49462891 23.20043945 C94.48716328 24.67302175 94.48147186 26.14561403 94.47747803 27.61820984 C94.46224672 31.48344627 94.42298754 35.34807605 94.37866211 39.21307373 C94.33765472 43.1612528 94.31945541 47.10953043 94.29931641 51.05786133 C94.25648978 58.79710146 94.18616162 66.53571735 94.10400391 74.2746582 C86.84400391 74.2746582 79.58400391 74.2746582 72.10400391 74.2746582 C72.10400391 69.6546582 72.10400391 65.0346582 72.10400391 60.2746582 C54.28400391 60.2746582 36.46400391 60.2746582 18.10400391 60.2746582 C18.10400391 52.6846582 18.10400391 45.0946582 18.10400391 37.2746582 C35.92400391 37.2746582 53.74400391 37.2746582 72.10400391 37.2746582 C72.10400391 32.6546582 72.10400391 28.0346582 72.10400391 23.2746582 C49.66400391 23.2746582 27.22400391 23.2746582 4.10400391 23.2746582 C4.10400391 40.1046582 4.10400391 56.9346582 4.10400391 74.2746582 C-3.15599609 74.2746582 -10.41599609 74.2746582 -17.89599609 74.2746582 C-18.00911567 65.77293875 -18.10077899 57.27180774 -18.15505695 48.76953697 C-18.18111236 44.82125181 -18.21643435 40.87350973 -18.27319336 36.92553711 C-18.32766077 33.11294877 -18.35744714 29.3008816 -18.37038231 25.48793411 C-18.37959604 24.03586246 -18.39758898 22.58381823 -18.42464638 21.13196945 C-18.65371127 8.3274557 -18.65371127 8.3274557 -15.61547852 4.46069336 C-10.44308324 0.30290296 -6.56735915 -0.01923607 0 0 Z M-13.89599609 7.2746582 C-15.25838685 9.99943972 -15.01569567 12.14306676 -15.00952148 15.19311523 C-15.00944595 16.43425079 -15.00937042 17.67538635 -15.0092926 18.95413208 C-15.0041856 20.31357869 -14.9989696 21.6730249 -14.99365234 23.0324707 C-14.99178751 24.41966704 -14.99036392 25.80686404 -14.98936462 27.19406128 C-14.98554457 30.84700333 -14.97571865 34.49990568 -14.96466064 38.15283203 C-14.95443553 41.87963321 -14.94986464 45.60644079 -14.94482422 49.33325195 C-14.93409592 56.64707424 -14.91650326 63.9608556 -14.89599609 71.2746582 C-9.28599609 71.2746582 -3.67599609 71.2746582 2.10400391 71.2746582 C2.10400391 54.4446582 2.10400391 37.6146582 2.10400391 20.2746582 C26.19400391 20.2746582 50.28400391 20.2746582 75.10400391 20.2746582 C75.10400391 26.8746582 75.10400391 33.4746582 75.10400391 40.2746582 C57.28400391 40.2746582 39.46400391 40.2746582 21.10400391 40.2746582 C21.10400391 45.8846582 21.10400391 51.4946582 21.10400391 57.2746582 C38.92400391 57.2746582 56.74400391 57.2746582 75.10400391 57.2746582 C75.10400391 61.8946582 75.10400391 66.5146582 75.10400391 71.2746582 C80.71400391 71.2746582 86.32400391 71.2746582 92.10400391 71.2746582 C92.19453289 63.55532182 92.2678509 55.83618438 92.31125259 48.11644554 C92.33208813 44.5314492 92.36033041 40.94683626 92.40576172 37.36206055 C92.44936583 33.8996163 92.47317134 30.43753979 92.48351288 26.97484207 C92.49445211 25.01723338 92.52565519 23.05977172 92.55718994 21.10238647 C92.6663262 12.3331857 92.6663262 12.3331857 88.10400391 5.2746582 C84.23523264 2.53873403 79.84342956 2.97920748 75.29980469 2.98413086 C73.96739243 2.97405502 73.96739243 2.97405502 72.60806274 2.96377563 C69.67175705 2.94477862 66.73567973 2.94087058 63.79931641 2.9387207 C61.75674343 2.932294 59.71417138 2.92556573 57.67160034 2.91854858 C53.38944362 2.90657158 49.1073676 2.9028682 44.82519531 2.90405273 C39.34174156 2.90425595 33.8588059 2.87695245 28.37547493 2.84250832 C24.15637847 2.8202561 19.93740704 2.81621468 15.7182579 2.81727219 C13.6968698 2.81491376 11.67547839 2.80607663 9.6541481 2.79060745 C6.82472848 2.77098153 3.9964304 2.77677221 1.16699219 2.78881836 C0.33458008 2.77757935 -0.49783203 2.76634033 -1.35546875 2.75476074 C-6.65511521 2.81201075 -9.69398012 3.74842952 -13.89599609 7.2746582 Z " fill="#C2A64A" transform="translate(61.89599609375,62.725341796875)"/>
<path d="M0 0 C0.66 0 1.32 0 2 0 C2 19.47 2 38.94 2 59 C7.94 59 13.88 59 20 59 C20 42.17 20 25.34 20 8 C43.76 8 67.52 8 92 8 C92 13.61 92 19.22 92 25 C91.34 25 90.68 25 90 25 C90 20.38 90 15.76 90 11 C67.56 11 45.12 11 22 11 C22 27.83 22 44.66 22 62 C14.74 62 7.48 62 0 62 C0 41.54 0 21.08 0 0 Z " fill="#C8AC4E" transform="translate(44,75)"/>
<path d="M0 0 C0 0.99 0 1.98 0 3 C1.65 3.66 3.3 4.32 5 5 C5 5.99 5 6.98 5 8 C4.401875 7.525625 3.80375 7.05125 3.1875 6.5625 C-1.1859565 3.4386025 -5.62804801 3.83931502 -10.7824707 3.82299805 C-11.68035309 3.81642685 -12.57823547 3.80985565 -13.50332642 3.80308533 C-16.47747887 3.78335944 -19.45158086 3.77169181 -22.42578125 3.76171875 C-23.44156942 3.75764322 -24.4573576 3.7535677 -25.50392723 3.74936867 C-30.87948783 3.72851181 -36.25502293 3.71420793 -41.63061523 3.70483398 C-47.18244592 3.69376526 -52.73387628 3.65935873 -58.28556538 3.61966228 C-62.55525966 3.59351869 -66.82485818 3.58514419 -71.09462547 3.58155251 C-73.14114272 3.57668139 -75.18765554 3.56505252 -77.23409462 3.54651451 C-80.09950138 3.52216945 -82.9638672 3.5230796 -85.8293457 3.5300293 C-87.09434654 3.51081421 -87.09434654 3.51081421 -88.38490295 3.49121094 C-93.76401506 3.53870611 -96.66407282 4.54542987 -101 8 C-101.99 8.495 -101.99 8.495 -103 9 C-102.67 7.35 -102.34 5.7 -102 4 C-100.5459375 3.5359375 -100.5459375 3.5359375 -99.0625 3.0625 C-96.15934208 2.30476658 -96.15934208 2.30476658 -95 1 C-92.19149647 0.87476025 -89.40639086 0.81390706 -86.59643555 0.79467773 C-85.71513977 0.78477814 -84.83384399 0.77487854 -83.92584229 0.76467896 C-80.99616225 0.73295164 -78.06646611 0.70825552 -75.13671875 0.68359375 C-73.10748365 0.66302701 -71.07825287 0.64203061 -69.04902649 0.62062073 C-63.69283586 0.56529672 -58.33660575 0.51594732 -52.98034668 0.46777344 C-47.53699113 0.41772887 -42.0936953 0.36189767 -36.65039062 0.30664062 C-28.69753674 0.22676599 -20.74466741 0.14901379 -12.79174805 0.07592773 C-11.53930046 0.06425819 -11.53930046 0.06425819 -10.2615509 0.05235291 C-6.84081765 0.02138268 -3.42090682 0 0 0 Z " fill="#231A06" transform="translate(148,60)"/>
<path d="M0 0 C0.90737411 -0.00014603 1.81474823 -0.00029205 2.74961853 -0.0004425 C5.75807053 0.00025588 8.76646112 0.00804485 11.77490234 0.01586914 C13.85712653 0.01773358 15.93935115 0.01915736 18.02157593 0.02015686 C23.50920823 0.02397998 28.99681417 0.03380853 34.48443604 0.04486084 C40.08125451 0.05507937 45.67807723 0.05965543 51.27490234 0.06469727 C62.26189311 0.07543096 73.24886429 0.09250494 84.23583984 0.11352539 C84.23583984 0.44352539 84.23583984 0.77352539 84.23583984 1.11352539 C53.87583984 1.11352539 23.51583984 1.11352539 -7.76416016 1.11352539 C-7.76416016 2.10352539 -7.76416016 3.09352539 -7.76416016 4.11352539 C-9.40047908 5.16244778 -11.06901878 6.16259243 -12.76416016 7.11352539 C-14.1198212 9.82484749 -13.92647101 11.99660537 -13.96948242 15.03198242 C-13.98942764 16.27311798 -14.00937286 17.51425354 -14.02992249 18.79299927 C-14.04690676 20.15244419 -14.06378557 21.51189044 -14.08056641 22.87133789 C-14.10113597 24.25854106 -14.12213244 25.64573797 -14.14353943 27.03292847 C-14.19875996 30.68580044 -14.24816927 34.33872898 -14.29638672 37.99169922 C-14.34660191 41.71855713 -14.40228787 45.4453328 -14.45751953 49.17211914 C-14.56510086 56.4858516 -14.66654584 63.7996524 -14.76416016 71.11352539 C-15.09416016 71.11352539 -15.42416016 71.11352539 -15.76416016 71.11352539 C-15.76416016 51.64352539 -15.76416016 32.17352539 -15.76416016 12.11352539 C-16.42416016 12.11352539 -17.08416016 12.11352539 -17.76416016 12.11352539 C-17.62626124 9.14869865 -17.4747168 6.90118055 -15.43212891 4.63696289 C-10.12513542 0.22092451 -6.691297 -0.02789457 0 0 Z " fill="#A28C4A" transform="translate(61.76416015625,62.886474609375)"/>
<path d="M0 0 C17.82 0 35.64 0 54 0 C53.67 0.66 53.34 1.32 53 2 C36.17 2 19.34 2 2 2 C2 6.62 2 11.24 2 16 C18.83 16 35.66 16 53 16 C53 16.33 53 16.66 53 17 C35.51 17 18.02 17 0 17 C0 11.39 0 5.78 0 0 Z " fill="#302506" transform="translate(83,103)"/>
<path d="M0 0 C4.94185995 4.78244511 4.94185995 4.78244511 5.12025452 8.51834106 C5.1169236 10.11051956 5.1169236 10.11051956 5.11352539 11.73486328 C5.11344986 12.93595734 5.11337433 14.13705139 5.11329651 15.37454224 C5.10813522 16.67664642 5.10297394 17.97875061 5.09765625 19.3203125 C5.09579138 20.66266833 5.0943678 22.00502484 5.09336853 23.34738159 C5.08954878 26.88195675 5.07972312 30.41649087 5.06866455 33.9510498 C5.05843878 37.55720464 5.05386841 41.1633661 5.04882812 44.76953125 C5.03810037 51.84637256 5.02050795 58.92317929 5 66 C-0.61 66 -6.22 66 -12 66 C-12 61.38 -12 56.76 -12 52 C-11.67 52 -11.34 52 -11 52 C-10.67 55.96 -10.34 59.92 -10 64 C-6.04 64.33 -2.08 64.66 2 65 C2.33 46.19 2.66 27.38 3 8 C2.34 8 1.68 8 1 8 C1 8.66 1 9.32 1 10 C0.34 10 -0.32 10 -1 10 C-0.67 6.7 -0.34 3.4 0 0 Z " fill="#372F0F" transform="translate(149,68)"/>
<path d="M0 0 C0.95708359 0.00222061 1.91416718 0.00444122 2.9002533 0.00672913 C3.98129837 0.00680466 5.06234344 0.00688019 6.17614746 0.00695801 C7.94018166 0.01469994 7.94018166 0.01469994 9.73985291 0.02259827 C10.93702438 0.02401321 12.13419586 0.02542816 13.36764526 0.02688599 C17.20918732 0.03250472 21.05067208 0.04506041 24.89219666 0.05775452 C27.48920102 0.0627671 30.0862063 0.06733043 32.68321228 0.07142639 C39.06539344 0.08248024 45.44754096 0.0992366 51.82969666 0.12025452 C51.82969666 0.45025452 51.82969666 0.78025452 51.82969666 1.12025452 C34.33969666 1.12025452 16.84969666 1.12025452 -1.17030334 1.12025452 C-1.17030334 6.73025452 -1.17030334 12.34025452 -1.17030334 18.12025452 C16.31969666 18.12025452 33.80969666 18.12025452 51.82969666 18.12025452 C51.49969666 18.78025452 51.16969666 19.44025452 50.82969666 20.12025452 C33.00969666 20.12025452 15.18969666 20.12025452 -3.17030334 20.12025452 C-3.17030334 0.1756636 -3.17030334 0.1756636 0 0 Z " fill="#C5AC53" transform="translate(84.17030334472656,101.87974548339844)"/>
<path d="M0 0 C0.89470001 -0.00365067 1.78940002 -0.00730133 2.71121216 -0.01106262 C5.66688039 -0.0191652 8.622 -0.00556248 11.57763672 0.0090332 C13.62979126 0.00955175 15.6819463 0.00903425 17.73410034 0.00752258 C22.03309553 0.00761229 26.3319031 0.01803992 30.63085938 0.03613281 C36.15044569 0.05884842 41.66975852 0.05935873 47.18937874 0.05261517 C51.42547044 0.04927977 55.66149938 0.05589669 59.89757919 0.0657444 C61.93341621 0.06960196 63.9692602 0.07074233 66.00510025 0.06915855 C68.84468231 0.06878916 71.68390869 0.08137179 74.5234375 0.09765625 C75.79362732 0.09394012 75.79362732 0.09394012 77.08947754 0.09014893 C82.90358025 0.14357048 82.90358025 0.14357048 85.13232422 2.37231445 C83.98196182 2.37009384 82.83159943 2.36787323 81.64637756 2.36558533 C70.83032363 2.34535523 60.01427352 2.33034295 49.19820499 2.32050228 C43.6369301 2.31527312 38.07567043 2.30817487 32.5144043 2.296875 C27.15225003 2.2860473 21.79011044 2.28003787 16.42794609 2.27743721 C14.37732143 2.27558275 12.32669762 2.27196174 10.27607918 2.2665844 C7.41442219 2.25937552 4.55282665 2.25832345 1.69116211 2.25878906 C0.83448944 2.25519379 -0.02218323 2.25159851 -0.90481567 2.24789429 C-4.69277442 1.88438279 -4.69277442 1.88438279 -7.86767578 3.37231445 C-9.53384693 3.41295277 -11.20155673 3.41503545 -12.86767578 3.37231445 C-9.13909836 -0.43610765 -4.99146681 -0.04527286 0 0 Z " fill="#312504" transform="translate(62.86767578125,65.627685546875)"/>
<path d="M0 0 C0.66 0 1.32 0 2 0 C3.99210675 3.33181751 4.26384546 5.89135515 4.30297852 9.74658203 C4.31962051 10.90102814 4.33626251 12.05547424 4.35340881 13.24490356 C4.36182297 14.48666351 4.37023712 15.72842346 4.37890625 17.0078125 C4.39590073 18.28477997 4.4128952 19.56174744 4.43040466 20.87741089 C4.47454709 24.26649749 4.51086236 27.65546585 4.54260254 31.04467773 C4.58835212 35.82789514 4.64418377 40.6109682 4.70530701 45.39401245 C4.73733417 47.94027716 4.76420213 50.48661276 4.78553772 53.0329895 C4.79902756 54.18113129 4.8125174 55.32927307 4.82641602 56.51220703 C4.83592789 57.52606476 4.84543976 58.53992249 4.85523987 59.58450317 C4.84193097 62.01128349 4.84193097 62.01128349 6 64 C5.01 65.32 4.02 66.64 3 68 C2.99191315 67.22183426 2.98382629 66.44366852 2.97549438 65.641922 C2.89747728 58.29997688 2.81016532 50.95822846 2.71247292 43.61652088 C2.66257731 39.84228487 2.6162469 36.06807593 2.578125 32.29370117 C2.54118678 28.64960907 2.49480409 25.00574724 2.44193649 21.36185265 C2.42343779 19.97327409 2.40831318 18.58464626 2.39665604 17.19599342 C2.37971674 15.24750665 2.3495492 13.2991486 2.31884766 11.35083008 C2.30552399 10.2427449 2.29220032 9.13465973 2.2784729 7.99299622 C1.99674148 4.96497773 1.27834757 2.74312332 0 0 Z " fill="#201A02" transform="translate(154,68)"/>
<path d="M0 0 C1.50433594 0.01353516 1.50433594 0.01353516 3.0390625 0.02734375 C3.80992188 0.03894531 4.58078125 0.05054688 5.375 0.0625 C5.375 0.3925 5.375 0.7225 5.375 1.0625 C2.075 1.0625 -1.225 1.0625 -4.625 1.0625 C-4.625 2.0525 -4.625 3.0425 -4.625 4.0625 C-5.40875 4.51625 -6.1925 4.97 -7 5.4375 C-10.07460012 7.34082388 -10.6156414 8.66738472 -11.625 12.0625 C-12.615 12.0625 -13.605 12.0625 -14.625 12.0625 C-14.48710108 9.09767326 -14.33555664 6.85015516 -12.29296875 4.5859375 C-7.91738314 0.94493925 -5.58839825 -0.06498137 0 0 Z " fill="#B69F4C" transform="translate(58.625,62.9375)"/>
<path d="M0 0 C0.33 0 0.66 0 1 0 C1 3.63 1 7.26 1 11 C6.28 11.33 11.56 11.66 17 12 C17 12.33 17 12.66 17 13 C11.06 13 5.12 13 -1 13 C-1.09765625 3.72265625 -1.09765625 3.72265625 -1 1 C-0.67 0.67 -0.34 0.34 0 0 Z " fill="#CAAF49" transform="translate(135,123)"/>
<path d="M0 0 C3.85695125 0.22039721 5.01616402 1.01546124 7.875 3.75 C10 7 10 7 9.8125 9.875 C9.544375 10.57625 9.27625 11.2775 9 12 C8.5875 11.4225 8.175 10.845 7.75 10.25 C5.49590532 7.35187827 3.3162567 4.65812835 0 3 C0 2.01 0 1.02 0 0 Z " fill="#BEA449" transform="translate(146,64)"/>
</svg>
